<?xml version="1.0" encoding="UTF-8"?>
<svg xmlns="http://www.w3.org/2000/svg" xmlns:xlink="http://www.w3.org/1999/xlink" width="640px" height="65px" viewBox="0 0 640 65" version="1.1">
<g id="surface1">
<path style=" stroke:none;fill-rule:nonzero;fill:rgb(73.333333%,0%,20.784314%);fill-opacity:1;" d="M 0 13 L 26.667969 10.828125 C 53.332031 8.734375 106.667969 4.265625 160 7.578125 C 213.332031 10.765625 266.667969 21.734375 320 29.25 C 373.332031 36.765625 426.667969 41.234375 480 39 C 533.332031 36.765625 586.667969 28.234375 613.332031 23.828125 L 640 19.5 L 640 65 L 613.332031 65 C 586.667969 65 533.332031 65 480 65 C 426.667969 65 373.332031 65 320 65 C 266.667969 65 213.332031 65 160 65 C 106.667969 65 53.332031 65 26.667969 65 L 0 65 Z M 0 13 "/>
</g>
</svg>
